<?xml version="1.0" encoding="UTF-8"?>
<svg id="Layer_1" data-name="Layer 1" xmlns="http://www.w3.org/2000/svg" viewBox="0 0 800 193.92">
  <defs>
    <style>
      .cls-1 {
        fill: #4fc642;
      }

      .cls-1, .cls-2, .cls-3, .cls-4, .cls-5 {
        stroke-width: 0px;
      }

      .cls-2 {
        fill: #009aff;
      }

      .cls-3 {
        fill: #fbd800;
      }

      .cls-4 {
        fill: #000730;
      }

      .cls-5 {
        fill: #c322ff;
      }
    </style>
  </defs>
  <g>
    <path class="cls-4" d="M350.42,103.94v41.04h-19.74v-37.84c0-11.59-4.93-16.92-12.91-16.92-8.86,0-15.06,5.99-15.06,18.78v35.98h-19.74v-37.84c0-11.59-4.68-16.92-12.91-16.92-8.73,0-14.93,5.99-14.93,18.78v35.98h-19.74v-71.68h18.85v8.26c5.06-6.13,12.65-9.33,21.38-9.33,9.49,0,17.59,3.86,22.4,11.73,5.44-7.33,14.3-11.73,24.55-11.73,16.2,0,27.84,9.86,27.84,31.71Z"/>
    <path class="cls-4" d="M430.69,114.99h-51.5c1.9,8.93,9.11,14.39,19.49,14.39,7.21,0,12.4-2.26,17.08-6.93l10.5,11.99c-6.33,7.6-15.82,11.59-28.09,11.59-23.54,0-38.85-15.59-38.85-36.91s15.56-36.91,36.32-36.91,35.43,14.12,35.43,37.17c0,1.6-.25,3.86-.38,5.6ZM378.94,102.87h33.53c-1.39-9.06-7.85-14.92-16.7-14.92s-15.44,5.73-16.83,14.92Z"/>
    <path class="cls-4" d="M514.13,46.11v98.86h-18.85v-8.26c-4.93,6.26-12.15,9.33-21.26,9.33-19.23,0-34.04-14.39-34.04-36.91s14.8-36.91,34.04-36.91c8.35,0,15.44,2.8,20.37,8.66v-34.77h19.74ZM494.77,109.13c0-12.39-7.59-19.85-17.34-19.85s-17.46,7.46-17.46,19.85,7.59,19.85,17.46,19.85,17.34-7.46,17.34-19.85Z"/>
    <path class="cls-4" d="M620.13,104.07v40.9h-18.47v-8.93c-3.67,6.53-10.76,9.99-20.75,9.99-15.94,0-25.43-9.33-25.43-21.72s8.48-21.45,29.23-21.45h15.69c0-8.93-5.06-14.12-15.69-14.12-7.21,0-14.68,2.53-19.61,6.66l-7.09-14.52c7.47-5.6,18.47-8.66,29.36-8.66,20.75,0,32.77,10.13,32.77,31.85ZM600.39,122.32v-7.33h-13.54c-9.24,0-12.15,3.6-12.15,8.39,0,5.2,4.18,8.66,11.14,8.66,6.58,0,12.27-3.2,14.55-9.73Z"/>
    <path class="cls-4" d="M658.77,73.29h17.46v15.93h-16.96v55.75h-19.74v-55.75h-10.5v-15.93h10.5v-1.6c0-16.12,9.36-26.65,26.32-26.65,5.57,0,11.39,1.2,15.06,3.87l-5.19,15.05c-2.15-1.6-4.93-2.53-7.97-2.53-5.82,0-8.98,3.33-8.98,10.39v1.47Z"/>
    <path class="cls-4" d="M744.82,73.29l-30.75,76.08c-6.58,17.32-15.94,22.52-28.22,22.52-6.96,0-14.55-2.4-18.98-6.53l7.21-14.79c3.04,2.8,7.21,4.53,11.14,4.53,5.44,0,8.48-2.53,11.14-8.93l.25-.66-29.48-72.22h20.37l19.11,48.63,19.23-48.63h18.98Z"/>
    <g>
      <path class="cls-4" d="M525.14,73.29h19.74v71.68h-19.74v-71.68Z"/>
      <circle class="cls-4" cx="534.8" cy="56.81" r="11.76"/>
    </g>
    <g>
      <path class="cls-4" d="M755.17,63.92c0-2.75,2.08-4.88,5.17-4.88s5.17,2.02,5.17,4.71c0,2.92-2.08,5.05-5.17,5.05s-5.17-2.13-5.17-4.88ZM756.18,73.01h8.32v30.19h-8.32v-30.19Z"/>
      <path class="cls-4" d="M768.5,88.1c0-9.09,6.66-15.54,15.78-15.54s15.73,6.45,15.73,15.54-6.61,15.54-15.73,15.54-15.78-6.45-15.78-15.54ZM791.58,88.1c0-5.22-3.15-8.36-7.3-8.36s-7.36,3.14-7.36,8.36,3.2,8.36,7.36,8.36,7.3-3.14,7.3-8.36Z"/>
    </g>
  </g>
  <g>
    <circle class="cls-2" cx="26.99" cy="116.06" r="26.99"/>
    <path class="cls-1" d="M135.2,7.91h0c10.54,10.54,10.54,27.63,0,38.18l-38.18,38.18c-10.54,10.54-27.63,10.54-38.18,0h0c-10.54-10.54-10.54-27.63,0-38.18L97.02,7.91c10.54-10.54,27.63-10.54,38.18,0Z"/>
    <circle class="cls-5" cx="166.97" cy="77.87" r="26.99"/>
    <path class="cls-3" d="M58.82,186.01h0c-10.54-10.54-10.54-27.63,0-38.18l38.18-38.18c10.54-10.54,27.63-10.54,38.18,0h0c10.54,10.54,10.54,27.63,0,38.18l-38.18,38.18c-10.54,10.54-27.63,10.54-38.18,0Z"/>
  </g>
</svg>